<?xml version="1.0" encoding="utf-8"?>
<!-- Generator: Adobe Illustrator 24.1.3, SVG Export Plug-In . SVG Version: 6.00 Build 0)  -->
<svg version="1.1" id="Layer_1" xmlns="http://www.w3.org/2000/svg" xmlns:xlink="http://www.w3.org/1999/xlink" x="0px" y="0px"
	 viewBox="0 0 120 132" style="enable-background:new 0 0 120 132;" xml:space="preserve">
<style type="text/css">
	.st0{fill:none;stroke:#DCF5F9;stroke-miterlimit:10;}
	.st1{fill:url(#SVGID_1_);}
	.st2{fill:url(#SVGID_2_);}
	.st3{fill:url(#SVGID_3_);}
	.st4{fill-rule:evenodd;clip-rule:evenodd;fill:url(#SVGID_4_);}
	.st5{fill-rule:evenodd;clip-rule:evenodd;fill:url(#SVGID_5_);}
	.st6{fill-rule:evenodd;clip-rule:evenodd;fill:url(#SVGID_6_);}
	.st7{fill-rule:evenodd;clip-rule:evenodd;fill:url(#SVGID_7_);}
	.st8{fill:url(#SVGID_8_);}
	.st9{fill:url(#SVGID_9_);}
	.st10{fill:url(#SVGID_10_);}
	.st11{fill:url(#SVGID_11_);}
	.st12{fill:url(#SVGID_12_);}
	.st13{fill:url(#SVGID_13_);}
	.st14{fill:url(#SVGID_14_);}
	.st15{fill-rule:evenodd;clip-rule:evenodd;fill:url(#SVGID_15_);}
	.st16{fill-rule:evenodd;clip-rule:evenodd;fill:url(#SVGID_16_);}
	.st17{fill-rule:evenodd;clip-rule:evenodd;fill:url(#SVGID_17_);}
	.st18{fill-rule:evenodd;clip-rule:evenodd;fill:url(#SVGID_18_);}
	.st19{fill-rule:evenodd;clip-rule:evenodd;fill:url(#SVGID_19_);}
</style>
<linearGradient id="SVGID_1_" gradientUnits="userSpaceOnUse" x1="60" y1="24.8883" x2="60" y2="116.6447">
	<stop  offset="0" style="stop-color:#00D7FB"/>
	<stop  offset="0.1629" style="stop-color:#03CAF5"/>
	<stop  offset="1" style="stop-color:#1488D4"/>
</linearGradient>
<path style="fill-rule:evenodd;clip-rule:evenodd;fill:url(#SVGID_1_);" d="M69.64,27.3l-7.79,13.49l3.89,6.74l3.89-6.74l0,0
	l3.9-6.74l3.89,6.74l-1.11,1.94l0,0l-6.67,11.55L60,70.98l-2.41-4.17L44.25,43.7l0,0l-1.68-2.91l3.9-6.74l3.89,6.74v0l3.9,6.74
	l3.89-6.74L46.47,20.56L34.78,40.79L60,84.47l25.21-43.67L73.54,20.56L69.64,27.3L69.64,27.3z M9.79,97.58c5.19,0,10.38,0,15.58,0
	l9.42-16.32l-3.89-6.74l-9.42,16.32l-7.79,0l17.21-29.81L60,111.44l29.11-50.42l17.21,29.81l-7.79,0l-9.42-16.32l-3.89,6.74
	l9.42,16.32c7.79,0,15.57,0,23.36,0L89.11,47.53L60,97.95L30.89,47.53L2,97.58H9.79L9.79,97.58z M46.47,20.56L46.47,20.56
	L46.47,20.56z M73.54,20.56L73.54,20.56L73.54,20.56z"/>
</svg>
